<svg xmlns="http://www.w3.org/2000/svg" viewBox="0 0 1200 720">
  <rect width="1200" height="720" fill="#0d1014"/>
  <path d="M184 430h832" stroke="#242e36" stroke-width="28" stroke-linecap="round"/>
  <path d="M184 430h160M856 430h160" stroke="#f4b942" stroke-width="74" stroke-linecap="round"/>
  <path d="M258 430h154M788 430h154" stroke="#b7ff4a" stroke-width="38" stroke-linecap="round"/>
  <g transform="translate(456 176)">
    <circle cx="144" cy="142" r="122" fill="#f4b942"/>
    <circle cx="144" cy="142" r="90" fill="#111820" stroke="#ffe08a" stroke-width="12"/>
    <circle cx="110" cy="128" r="12" fill="#f3ead8"/>
    <circle cx="178" cy="128" r="12" fill="#f3ead8"/>
    <path d="M104 176c26 22 54 22 79 0" fill="none" stroke="#f3ead8" stroke-width="13" stroke-linecap="round"/>
    <path d="M60 238l-126-88M228 238l126-88M102 254l-54 118M186 254l54 118" stroke="#b7ff4a" stroke-width="30" stroke-linecap="round"/>
    <path d="M58 82c-30-28-66-42-110-42M230 82c30-28 66-42 110-42" stroke="#ff6b35" stroke-width="21" stroke-linecap="round"/>
  </g>
  <path d="M82 110h304M82 158h218M82 194h148" stroke="#f3ead8" stroke-width="18" stroke-linecap="round"/>
</svg>
