<svg xmlns="http://www.w3.org/2000/svg" viewBox="0 0 1200 720">
  <rect width="1200" height="720" fill="#0d1014"/>
  <path d="M0 520c170-54 340-64 510-28 238 50 418 36 690-72v300H0z" fill="#111820"/>
  <path d="M150 540c122-116 250-164 386-142 142 23 234 116 390 74 54-15 100-40 138-76" fill="none" stroke="#242e36" stroke-width="18" stroke-linecap="round" stroke-dasharray="28 30"/>
  <g transform="translate(434 186)">
    <circle cx="166" cy="150" r="124" fill="#f4b942"/>
    <circle cx="166" cy="150" r="92" fill="#111820" stroke="#ffe08a" stroke-width="12"/>
    <circle cx="130" cy="134" r="12" fill="#f3ead8"/>
    <circle cx="199" cy="134" r="12" fill="#f3ead8"/>
    <path d="M126 178c25 26 57 26 81 0" fill="none" stroke="#f3ead8" stroke-width="13" stroke-linecap="round"/>
    <path d="M68 256l-86 36M260 252l96 26M112 270l-66 112M210 270l70 102" stroke="#b7ff4a" stroke-width="30" stroke-linecap="round"/>
    <path d="M75 88c-38-22-75-26-112-10M256 86c38-24 78-32 120-22" stroke="#ff6b35" stroke-width="20" stroke-linecap="round"/>
  </g>
  <g fill="#f4b942">
    <ellipse cx="184" cy="430" rx="34" ry="52" transform="rotate(-24 184 430)"/>
    <ellipse cx="286" cy="388" rx="30" ry="48" transform="rotate(-20 286 388)"/>
    <ellipse cx="890" cy="404" rx="30" ry="48" transform="rotate(24 890 404)"/>
  </g>
  <path d="M82 110h284M82 158h206M82 194h132" stroke="#f3ead8" stroke-width="18" stroke-linecap="round"/>
</svg>
