<svg xmlns="http://www.w3.org/2000/svg" viewBox="0 0 48 48">
  <rect width="48" height="48" rx="11" fill="#0d1014"/>
  <circle cx="24" cy="24" r="16" fill="none" stroke="#242e36" stroke-width="5"/>
  <path d="M24 8a16 16 0 0 1 14 23" fill="none" stroke="#b7ff4a" stroke-width="5" stroke-linecap="round"/>
  <path d="M35 34a16 16 0 0 1-21 3" fill="none" stroke="#f4b942" stroke-width="5" stroke-linecap="round"/>
  <circle cx="24" cy="24" r="10" fill="#f4b942"/>
  <path d="M16 20h16M15 29h18" stroke="#111820" stroke-width="4" stroke-linecap="round"/>
  <path d="M20 31V17h9c3 0 5 2 5 4 0 2-1 3-3 4 2 1 4 2 4 5 0 3-2 5-6 5h-9z" fill="#111820"/>
</svg>
