<svg xmlns="http://www.w3.org/2000/svg" viewBox="0 0 1200 720">
  <rect width="1200" height="720" fill="#0d1014"/>
  <path d="M72 488h1056" stroke="#242e36" stroke-width="18" stroke-linecap="round"/>
  <path d="M600 198v364" stroke="#242e36" stroke-width="18" stroke-linecap="round" stroke-dasharray="22 26"/>
  <ellipse cx="860" cy="352" rx="126" ry="86" transform="rotate(-24 860 352)" fill="none" stroke="#f4b942" stroke-width="22"/>
  <path d="M760 402l-104 96M780 310l176 78M808 270l176 78M744 350l176 78" stroke="#f4b942" stroke-width="12" stroke-linecap="round"/>
  <path d="M656 498l-72 68" stroke="#b7ff4a" stroke-width="24" stroke-linecap="round"/>
  <circle cx="1006" cy="250" r="34" fill="#b7ff4a"/>
  <g transform="translate(366 188)">
    <circle cx="144" cy="132" r="116" fill="#f4b942"/>
    <circle cx="144" cy="132" r="84" fill="#111820" stroke="#ffe08a" stroke-width="12"/>
    <circle cx="112" cy="120" r="11" fill="#f3ead8"/>
    <circle cx="176" cy="120" r="11" fill="#f3ead8"/>
    <path d="M108 163c23 22 48 22 72 0" fill="none" stroke="#f3ead8" stroke-width="13" stroke-linecap="round"/>
    <path d="M66 230l-92 82M222 226l118-36M108 248l-48 118M178 248l58 112" stroke="#b7ff4a" stroke-width="28" stroke-linecap="round"/>
    <path d="M64 78c-32-28-68-40-108-34M226 78c32-28 68-40 108-34" stroke="#ff6b35" stroke-width="20" stroke-linecap="round"/>
  </g>
  <path d="M82 110h276M82 158h196M82 194h120" stroke="#f3ead8" stroke-width="18" stroke-linecap="round"/>
</svg>
