<svg xmlns="http://www.w3.org/2000/svg" viewBox="0 0 1200 720">
  <rect width="1200" height="720" fill="#0d1014"/>
  <path d="M0 520c210-58 354-42 512 8 194 62 386 84 688-32v224H0z" fill="#111820"/>
  <circle cx="832" cy="152" r="84" fill="#f4b942"/>
  <path d="M789 142h86M774 181h116" stroke="#111820" stroke-width="20" stroke-linecap="round"/>
  <path d="M211 536c165-92 302-139 509-138" fill="none" stroke="#242e36" stroke-width="16" stroke-linecap="round" stroke-dasharray="28 30"/>
  <g transform="translate(408 170)">
    <circle cx="164" cy="166" r="114" fill="#f4b942"/>
    <circle cx="164" cy="166" r="84" fill="#111820" stroke="#ffe08a" stroke-width="12"/>
    <circle cx="133" cy="151" r="11" fill="#f3ead8"/>
    <circle cx="198" cy="151" r="11" fill="#f3ead8"/>
    <path d="M128 194c23 25 57 25 81 0" fill="none" stroke="#f3ead8" stroke-width="13" stroke-linecap="round"/>
    <path d="M80 270l-66 78M246 260l86 42M116 288l-68 114M196 287l42 126" fill="none" stroke="#b7ff4a" stroke-width="28" stroke-linecap="round"/>
    <path d="M93 138c-30-28-67-38-111-28M232 135c28-31 67-45 116-39" fill="none" stroke="#ff6b35" stroke-width="20" stroke-linecap="round"/>
  </g>
  <path d="M92 128h270" stroke="#f3ead8" stroke-width="28" stroke-linecap="round"/>
  <path d="M92 178h190" stroke="#b7ff4a" stroke-width="18" stroke-linecap="round"/>
  <path d="M92 214h128" stroke="#f4b942" stroke-width="18" stroke-linecap="round"/>
</svg>
