<svg xmlns="http://www.w3.org/2000/svg" viewBox="0 0 1200 720">
  <rect width="1200" height="720" fill="#0d1014"/>
  <path d="M146 508c119-142 215-194 338-166 154 36 194 178 352 150 87-15 159-74 218-176" fill="none" stroke="#242e36" stroke-width="22" stroke-linecap="round"/>
  <path d="M146 508c119-142 215-194 338-166 154 36 194 178 352 150 87-15 159-74 218-176" fill="none" stroke="#b7ff4a" stroke-width="10" stroke-linecap="round" stroke-dasharray="20 28"/>
  <g transform="translate(456 180)">
    <rect x="0" y="0" width="288" height="366" rx="42" fill="#151d25" stroke="#f4b942" stroke-width="14"/>
    <rect x="34" y="52" width="220" height="148" rx="24" fill="#242e36"/>
    <circle cx="88" cy="110" r="32" fill="#f4b942"/>
    <path d="M52 178l62-52 44 34 38-29 58 47" fill="none" stroke="#b7ff4a" stroke-width="14" stroke-linecap="round" stroke-linejoin="round"/>
    <circle cx="144" cy="276" r="58" fill="#f4b942"/>
    <circle cx="144" cy="276" r="38" fill="#111820"/>
    <path d="M125 275l15 16 31-36" fill="none" stroke="#b7ff4a" stroke-width="14" stroke-linecap="round" stroke-linejoin="round"/>
  </g>
  <circle cx="178" cy="508" r="34" fill="#ff6b35"/>
  <circle cx="1034" cy="316" r="34" fill="#f4b942"/>
  <path d="M84 112h340" stroke="#f3ead8" stroke-width="28" stroke-linecap="round"/>
  <path d="M84 162h230" stroke="#b7ff4a" stroke-width="18" stroke-linecap="round"/>
  <path d="M84 198h156" stroke="#f4b942" stroke-width="18" stroke-linecap="round"/>
</svg>
