<svg xmlns="http://www.w3.org/2000/svg" viewBox="0 0 1024 1024">
  <defs>
    <radialGradient id="iron" cx="36%" cy="22%" r="82%">
      <stop offset="0" stop-color="#202833"/>
      <stop offset=".58" stop-color="#0d1014"/>
      <stop offset="1" stop-color="#080a0d"/>
    </radialGradient>
    <linearGradient id="gold" x1="240" y1="190" x2="780" y2="850">
      <stop offset="0" stop-color="#ffd86a"/>
      <stop offset=".45" stop-color="#f4b942"/>
      <stop offset="1" stop-color="#a96d1d"/>
    </linearGradient>
    <filter id="shadow" x="-20%" y="-20%" width="140%" height="140%">
      <feDropShadow dx="0" dy="28" stdDeviation="34" flood-color="#000000" flood-opacity=".45"/>
    </filter>
  </defs>
  <rect width="1024" height="1024" fill="url(#iron)"/>
  <circle cx="512" cy="512" r="328" fill="none" stroke="#242e36" stroke-width="74"/>
  <path d="M512 184a328 328 0 0 1 294 474" fill="none" stroke="#b7ff4a" stroke-width="74" stroke-linecap="round"/>
  <path d="M764 708a328 328 0 0 1-442 74" fill="none" stroke="#f4b942" stroke-width="74" stroke-linecap="round"/>
  <path d="M260 314a328 328 0 0 0-68 182" fill="none" stroke="#ff6b35" stroke-width="74" stroke-linecap="round"/>
  <circle cx="512" cy="512" r="224" fill="url(#gold)" filter="url(#shadow)"/>
  <circle cx="512" cy="512" r="176" fill="#111820" stroke="#ffe08a" stroke-width="18"/>
  <path d="M419 640V383h194c49 0 84 33 84 76 0 31-16 55-43 67 35 10 56 37 56 78 0 48-39 82-94 82H419zm80-152h91c17 0 29-11 29-27 0-17-12-28-29-28h-91v55zm0 101h103c18 0 30-12 30-30 0-17-12-29-30-29H499v59z" fill="#f3ead8"/>
  <path d="M354 356h298" stroke="#f3ead8" stroke-width="44" stroke-linecap="round"/>
  <path d="M329 674h366" stroke="#f3ead8" stroke-width="44" stroke-linecap="round"/>
  <path d="M318 274l78-44 73 54 71-86 74 116 93-34" fill="none" stroke="#b7ff4a" stroke-width="34" stroke-linecap="round" stroke-linejoin="round"/>
</svg>
