<svg xmlns="http://www.w3.org/2000/svg" viewBox="0 0 1200 720">
  <rect width="1200" height="720" fill="#0d1014"/>
  <path d="M0 540c210-78 382-90 552-44 206 56 388 38 648-94v318H0z" fill="#111820"/>
  <path d="M184 530c140-126 278-172 420-132" fill="none" stroke="#242e36" stroke-width="18" stroke-linecap="round" stroke-dasharray="28 30"/>
  <g transform="translate(430 166)">
    <circle cx="170" cy="150" r="126" fill="#f4b942"/>
    <circle cx="170" cy="150" r="92" fill="#111820" stroke="#ffe08a" stroke-width="12"/>
    <circle cx="135" cy="134" r="12" fill="#f3ead8"/>
    <circle cx="204" cy="134" r="12" fill="#f3ead8"/>
    <path d="M129 179c26 25 58 25 83 0" fill="none" stroke="#f3ead8" stroke-width="13" stroke-linecap="round"/>
    <path d="M74 250l-104 60M268 242l112-14M114 266l-92 118M210 266l32 138" stroke="#b7ff4a" stroke-width="30" stroke-linecap="round"/>
    <path d="M72 85c-35-30-78-43-128-38M262 82c42-30 88-39 138-28" stroke="#ff6b35" stroke-width="22" stroke-linecap="round"/>
  </g>
  <path d="M872 198h156M908 250h220M816 306h116" stroke="#f4b942" stroke-width="18" stroke-linecap="round"/>
  <path d="M82 110h280M82 158h204M82 194h132" stroke="#f3ead8" stroke-width="18" stroke-linecap="round"/>
</svg>
