<svg xmlns="http://www.w3.org/2000/svg" viewBox="0 0 1200 720">
  <rect width="1200" height="720" fill="#0d1014"/>
  <path d="M100 556h1000" stroke="#242e36" stroke-width="20" stroke-linecap="round"/>
  <path d="M100 556h690" stroke="#ff6b35" stroke-width="20" stroke-linecap="round"/>
  <circle cx="792" cy="556" r="34" fill="#f4b942"/>
  <g transform="translate(460 154)">
    <circle cx="140" cy="140" r="124" fill="#f4b942"/>
    <circle cx="140" cy="140" r="92" fill="#111820" stroke="#ffe08a" stroke-width="12"/>
    <circle cx="105" cy="126" r="12" fill="#f3ead8"/>
    <circle cx="174" cy="126" r="12" fill="#f3ead8"/>
    <path d="M102 184c25-18 54-18 78 0" fill="none" stroke="#f3ead8" stroke-width="13" stroke-linecap="round"/>
    <path d="M54 252l-80 80M226 252l82 80M92 266l-54 122M184 266l54 122" stroke="#ff6b35" stroke-width="28" stroke-linecap="round"/>
    <path d="M51 88c-22-28-56-45-101-50M230 88c22-28 56-45 101-50" stroke="#b7ff4a" stroke-width="19" stroke-linecap="round"/>
  </g>
  <path d="M872 176l88 152 88-152z" fill="#ff6b35"/>
  <path d="M960 226v48M960 304v3" stroke="#111820" stroke-width="20" stroke-linecap="round"/>
  <circle cx="218" cy="238" r="76" fill="#151d25" stroke="#f4b942" stroke-width="12"/>
  <path d="M183 234h70M172 268h90" stroke="#f4b942" stroke-width="16" stroke-linecap="round"/>
  <path d="M92 112h300" stroke="#f3ead8" stroke-width="28" stroke-linecap="round"/>
  <path d="M92 162h220" stroke="#ff6b35" stroke-width="18" stroke-linecap="round"/>
</svg>
