<svg xmlns="http://www.w3.org/2000/svg" viewBox="0 0 1200 720">
  <rect width="1200" height="720" fill="#0d1014"/>
  <path d="M80 540c170-78 315-100 434-66 162 46 312 80 604-74" fill="none" stroke="#242e36" stroke-width="24" stroke-linecap="round"/>
  <path d="M96 536c150-66 288-85 418-50 170 46 316 66 570-72" fill="none" stroke="#b7ff4a" stroke-width="10" stroke-linecap="round" stroke-dasharray="18 28"/>
  <g transform="translate(460 172)">
    <circle cx="140" cy="150" r="118" fill="#f4b942"/>
    <circle cx="140" cy="150" r="86" fill="#111820" stroke="#ffe08a" stroke-width="12"/>
    <circle cx="108" cy="137" r="11" fill="#f3ead8"/>
    <circle cx="172" cy="137" r="11" fill="#f3ead8"/>
    <path d="M104 181c24 22 50 22 73 0" fill="none" stroke="#f3ead8" stroke-width="13" stroke-linecap="round"/>
    <path d="M72 254l-76 74M206 252l84 56M110 266l-74 126M172 266l62 112" stroke="#b7ff4a" stroke-width="28" stroke-linecap="round"/>
    <path d="M71 86c-34-28-70-39-108-34M210 86c34-28 72-39 112-34" stroke="#f4b942" stroke-width="20" stroke-linecap="round"/>
  </g>
  <circle cx="938" cy="190" r="70" fill="#151d25" stroke="#f4b942" stroke-width="12"/>
  <path d="M908 188h62M898 220h82" stroke="#f4b942" stroke-width="15" stroke-linecap="round"/>
  <path d="M82 112h260M82 160h186M82 196h112" stroke="#f3ead8" stroke-width="18" stroke-linecap="round"/>
</svg>
