<svg xmlns="http://www.w3.org/2000/svg" viewBox="0 0 1200 720">
  <rect width="1200" height="720" fill="#0d1014"/>
  <path d="M600 88v544" stroke="#242e36" stroke-width="18" stroke-dasharray="26 28" stroke-linecap="round"/>
  <circle cx="366" cy="352" r="132" fill="#f4b942"/>
  <circle cx="366" cy="352" r="96" fill="#111820" stroke="#ffe08a" stroke-width="12"/>
  <circle cx="331" cy="337" r="12" fill="#f3ead8"/>
  <circle cx="399" cy="337" r="12" fill="#f3ead8"/>
  <path d="M324 384c23 24 58 24 82 0" fill="none" stroke="#f3ead8" stroke-width="13" stroke-linecap="round"/>
  <path d="M256 476l-92 42M480 462l84 56M305 483l-44 104M420 481l56 100" stroke="#b7ff4a" stroke-width="28" stroke-linecap="round"/>
  <circle cx="842" cy="352" r="132" fill="#ff6b35"/>
  <circle cx="842" cy="352" r="96" fill="#111820" stroke="#ffb08f" stroke-width="12"/>
  <circle cx="808" cy="337" r="12" fill="#f3ead8"/>
  <circle cx="875" cy="337" r="12" fill="#f3ead8"/>
  <path d="M800 386c25-18 57-18 83 0" fill="none" stroke="#f3ead8" stroke-width="13" stroke-linecap="round"/>
  <path d="M732 476l-86 50M954 468l92 42M784 484l-52 102M895 482l48 106" stroke="#f4b942" stroke-width="28" stroke-linecap="round"/>
  <path d="M535 328h42l-49 82h-38l-50-82h42l27 49 26-49zm98 0h52c41 0 66 16 66 44 0 24-18 38-55 43l-17 2c-13 2-19 5-19 11 0 8 11 12 32 12 22 0 43-4 63-12v35c-20 8-43 12-69 12-43 0-68-16-68-44 0-25 19-40 58-45l17-2c12-2 18-5 18-11 0-8-10-12-30-12-19 0-39 4-60 11v-34z" fill="#f3ead8"/>
  <path d="M88 112h248M864 112h248" stroke="#f3ead8" stroke-width="26" stroke-linecap="round"/>
  <path d="M88 158h168M944 158h168" stroke="#b7ff4a" stroke-width="18" stroke-linecap="round"/>
</svg>
